<svg width="10" height="19" viewBox="0 0 10 19" fill="none" xmlns="http://www.w3.org/2000/svg">
<path d="M9.5 3.75781H6.5C5.9477 3.75781 5.5 4.20553 5.5 4.75781V7.75781H9.5C9.6137 7.75529 9.7216 7.80821 9.7892 7.89971C9.8568 7.99121 9.8758 8.10981 9.84 8.21781L9.1 10.4178C9.0318 10.6197 8.8431 10.7562 8.63 10.7578H5.5V18.2578C5.5 18.5339 5.2761 18.7578 5 18.7578H2.5C2.22386 18.7578 2 18.5339 2 18.2578V10.7578H0.5C0.22386 10.7578 0 10.5339 0 10.2578V8.25781C0 7.98171 0.22386 7.75781 0.5 7.75781H2V4.75781C2 2.54867 3.7909 0.757812 6 0.757812H9.5C9.7761 0.757812 10 0.981672 10 1.25781V3.25781C10 3.53395 9.7761 3.75781 9.5 3.75781Z" fill="white"/>
</svg>
