<svg width="18" height="19" viewBox="0 0 18 19" fill="none" xmlns="http://www.w3.org/2000/svg">
<path fill-rule="evenodd" clip-rule="evenodd" d="M13 0.757812H5C2.23858 0.757812 0 2.99639 0 5.75781V13.7578C0 16.5192 2.23858 18.7578 5 18.7578H13C15.7614 18.7578 18 16.5192 18 13.7578V5.75781C18 2.99639 15.7614 0.757812 13 0.757812ZM16.25 13.7578C16.2445 15.5504 14.7926 17.0023 13 17.0078H5C3.20735 17.0023 1.75549 15.5504 1.75 13.7578V5.75781C1.75549 3.96516 3.20735 2.5133 5 2.50781H13C14.7926 2.5133 16.2445 3.96516 16.25 5.75781V13.7578ZM13.75 6.00781C14.3023 6.00781 14.75 5.56009 14.75 5.00781C14.75 4.45553 14.3023 4.00781 13.75 4.00781C13.1977 4.00781 12.75 4.45553 12.75 5.00781C12.75 5.56009 13.1977 6.00781 13.75 6.00781ZM9 5.25781C6.51472 5.25781 4.5 7.27253 4.5 9.75781C4.5 12.2431 6.51472 14.2578 9 14.2578C11.4853 14.2578 13.5 12.2431 13.5 9.75781C13.5027 8.56351 13.0294 7.41738 12.1849 6.57289C11.3404 5.7284 10.1943 5.25515 9 5.25781ZM6.25 9.75781C6.25 11.2766 7.4812 12.5078 9 12.5078C10.5188 12.5078 11.75 11.2766 11.75 9.75781C11.75 8.23901 10.5188 7.00781 9 7.00781C7.4812 7.00781 6.25 8.23901 6.25 9.75781Z" fill="white"/>
</svg>
