<svg width="18" height="19" viewBox="0 0 18 19" fill="none" xmlns="http://www.w3.org/2000/svg">
<path fill-rule="evenodd" clip-rule="evenodd" d="M2 0.757812H16C17.1046 0.757812 18 1.65324 18 2.75781V16.7578C18 17.8624 17.1046 18.7578 16 18.7578H2C0.89543 18.7578 0 17.8624 0 16.7578V2.75781C0 1.65324 0.89543 0.757812 2 0.757812ZM5 15.7578C5.27614 15.7578 5.5 15.5339 5.5 15.2578V8.25781C5.5 7.98171 5.27614 7.75781 5 7.75781H3.5C3.22386 7.75781 3 7.98171 3 8.25781V15.2578C3 15.5339 3.22386 15.7578 3.5 15.7578H5ZM4.25 6.75781C3.42157 6.75781 2.75 6.08624 2.75 5.25781C2.75 4.42938 3.42157 3.75781 4.25 3.75781C5.07843 3.75781 5.75 4.42938 5.75 5.25781C5.75 6.08624 5.07843 6.75781 4.25 6.75781ZM14.5 15.7578C14.7761 15.7578 15 15.5339 15 15.2578V10.6578C15.0325 9.06861 13.8576 7.71233 12.28 7.51781C11.177 7.41706 10.1083 7.93221 9.5 8.85781V8.25781C9.5 7.98171 9.2761 7.75781 9 7.75781H7.5C7.2239 7.75781 7 7.98171 7 8.25781V15.2578C7 15.5339 7.2239 15.7578 7.5 15.7578H9C9.2761 15.7578 9.5 15.5339 9.5 15.2578V11.5078C9.5 10.6794 10.1716 10.0078 11 10.0078C11.8284 10.0078 12.5 10.6794 12.5 11.5078V15.2578C12.5 15.5339 12.7239 15.7578 13 15.7578H14.5Z" fill="white"/>
</svg>
