<svg width="18" height="16" viewBox="0 0 18 16" fill="none" xmlns="http://www.w3.org/2000/svg">
<path d="M17.9727 2.47521C17.5083 3.09473 16.9469 3.63514 16.3102 4.07557C16.3102 4.2374 16.3102 4.39923 16.3102 4.57006C16.3153 7.50891 15.1414 10.3269 13.0517 12.3923C10.9619 14.4577 8.13108 15.5977 5.19393 15.5567C3.49587 15.5624 1.81955 15.1747 0.2963 14.4239C0.21416 14.388 0.16119 14.3068 0.1615 14.2171V14.1182C0.1615 13.9891 0.26611 13.8845 0.39515 13.8845C2.0643 13.8294 3.6739 13.2507 4.99622 12.2302C3.48541 12.1997 2.12607 11.3047 1.50048 9.92851C1.46889 9.85341 1.47872 9.76711 1.52645 9.70101C1.57417 9.63491 1.65288 9.59851 1.73413 9.60491C2.1933 9.65101 2.65706 9.60831 3.10008 9.47901C1.43227 9.13281 0.17909 7.74821 -0.000260003 6.05351C-0.00663 5.97221 0.0297999 5.89351 0.0958799 5.84571C0.16195 5.79801 0.24812 5.78811 0.32326 5.81981C0.77082 6.01731 1.25397 6.12132 1.74312 6.12541C0.28172 5.16628 -0.34951 3.34186 0.20643 1.68403C0.26382 1.52294 0.40169 1.40393 0.56938 1.37075C0.73706 1.33756 0.90984 1.39509 1.0242 1.5222C2.99627 3.62106 5.70592 4.87177 8.58178 5.0106C8.50818 4.71666 8.47198 4.41457 8.47398 4.11153C8.50088 2.52253 9.48408 1.10702 10.9633 0.527684C12.4424 -0.0516458 14.1248 0.319845 15.2229 1.46825C15.9713 1.32566 16.6949 1.07426 17.3706 0.722025C17.4201 0.691124 17.4829 0.691124 17.5324 0.722025C17.5633 0.771545 17.5633 0.834334 17.5324 0.883854C17.2051 1.63333 16.6522 2.26193 15.9508 2.682C16.565 2.61077 17.1684 2.46588 17.7481 2.25045C17.7969 2.21723 17.861 2.21723 17.9098 2.25045C17.9507 2.26915 17.9813 2.30492 17.9934 2.34823C18.0055 2.39154 17.9979 2.43799 17.9727 2.47521Z" fill="white"/>
</svg>
